<svg width="16" height="16" viewBox="0 0 16 16" fill="none" xmlns="http://www.w3.org/2000/svg">
<g clip-path="url(#clip0_724_1810)">
<path d="M-0.224976 14.5L3.95002 8L-0.224976 1.5H10.55C10.8834 1.5 11.2044 1.579 11.513 1.737C11.821 1.89567 12.075 2.11667 12.275 2.4L16.225 8L12.225 13.625C12.0417 13.9083 11.8 14.125 11.5 14.275C11.2 14.425 10.8834 14.5 10.55 14.5H-0.224976ZM2.50002 13H10.55C10.6334 13 10.7167 12.9793 10.8 12.938C10.8834 12.896 10.9584 12.8333 11.025 12.75L14.4 8L11.025 3.25C10.9584 3.16667 10.8874 3.104 10.812 3.062C10.7374 3.02067 10.65 3 10.55 3H2.50002L5.75002 8L2.50002 13ZM5.75002 8L2.50002 3L5.75002 8L2.50002 13L5.75002 8Z" fill="#5A6A85"/>
</g>
<defs>
<clipPath id="clip0_724_1810">
<rect width="16" height="16" fill="white"/>
</clipPath>
</defs>
</svg>
