<svg width="16" height="16" viewBox="0 0 16 16" fill="none" xmlns="http://www.w3.org/2000/svg">
<path d="M8.00016 14.6654C4.31816 14.6654 1.3335 11.6807 1.3335 7.9987C1.3335 4.3167 4.31816 1.33203 8.00016 1.33203C11.6822 1.33203 14.6668 4.3167 14.6668 7.9987C14.6668 11.6807 11.6822 14.6654 8.00016 14.6654ZM8.00016 13.332C9.41465 13.332 10.7712 12.7701 11.7714 11.7699C12.7716 10.7697 13.3335 9.41319 13.3335 7.9987C13.3335 6.58421 12.7716 5.22766 11.7714 4.22746C10.7712 3.22727 9.41465 2.66536 8.00016 2.66536C6.58567 2.66536 5.22912 3.22727 4.22893 4.22746C3.22873 5.22766 2.66683 6.58421 2.66683 7.9987C2.66683 9.41319 3.22873 10.7697 4.22893 11.7699C5.22912 12.7701 6.58567 13.332 8.00016 13.332ZM4.66683 11.332C4.66683 10.448 5.01802 9.60013 5.64314 8.97501C6.26826 8.34989 7.11611 7.9987 8.00016 7.9987C8.88422 7.9987 9.73206 8.34989 10.3572 8.97501C10.9823 9.60013 11.3335 10.448 11.3335 11.332H10.0002C10.0002 10.8016 9.78945 10.2929 9.41438 9.91782C9.0393 9.54274 8.5306 9.33203 8.00016 9.33203C7.46973 9.33203 6.96102 9.54274 6.58595 9.91782C6.21088 10.2929 6.00016 10.8016 6.00016 11.332H4.66683ZM5.3335 7.33203C5.06828 7.33203 4.81393 7.22667 4.62639 7.03914C4.43885 6.8516 4.3335 6.59725 4.3335 6.33203C4.3335 6.06681 4.43885 5.81246 4.62639 5.62492C4.81393 5.43739 5.06828 5.33203 5.3335 5.33203C5.59871 5.33203 5.85307 5.43739 6.0406 5.62492C6.22814 5.81246 6.3335 6.06681 6.3335 6.33203C6.3335 6.59725 6.22814 6.8516 6.0406 7.03914C5.85307 7.22667 5.59871 7.33203 5.3335 7.33203ZM10.6668 7.33203C10.4016 7.33203 10.1473 7.22667 9.95972 7.03914C9.77219 6.8516 9.66683 6.59725 9.66683 6.33203C9.66683 6.06681 9.77219 5.81246 9.95972 5.62492C10.1473 5.43739 10.4016 5.33203 10.6668 5.33203C10.932 5.33203 11.1864 5.43739 11.3739 5.62492C11.5615 5.81246 11.6668 6.06681 11.6668 6.33203C11.6668 6.59725 11.5615 6.8516 11.3739 7.03914C11.1864 7.22667 10.932 7.33203 10.6668 7.33203Z" fill="#FA896B"/>
</svg>
