<svg width="24" height="24" viewBox="0 0 24 24" fill="none" xmlns="http://www.w3.org/2000/svg">
<path d="M11.925 21.2249L16.125 10.1499H18.05L22.25 21.2249H20.325L19.35 18.3999H14.875L13.875 21.2249H11.925ZM15.425 16.7999H18.75L17.125 12.2249H17.05L15.425 16.7999ZM4.625 18.4499L3.325 17.1499L8 12.4999C7.41667 11.8499 6.90833 11.1789 6.475 10.4869C6.04167 9.79557 5.65833 9.06657 5.325 8.2999H7.25C7.53333 8.86657 7.83333 9.37057 8.15 9.8119C8.46667 10.2539 8.84167 10.7166 9.275 11.1999C9.95833 10.4666 10.525 9.71257 10.975 8.9379C11.425 8.16257 11.8 7.33324 12.1 6.4499H1.875V4.6249H8.325V2.7749H10.175V4.6249H16.625V6.4499H13.95C13.6167 7.5499 13.175 8.61224 12.625 9.6369C12.075 10.6622 11.3917 11.6332 10.575 12.5499L12.8 14.7999L12.1 16.6999L9.25 13.8499L4.625 18.4499Z" fill="#5A6A85"/>
</svg>
