<svg width="20" height="20" viewBox="0 0 20 20" fill="none" xmlns="http://www.w3.org/2000/svg">
<g clip-path="url(#clip0_905_2577)">
<path d="M3.5 18.25V3.3C3.5 2.8 3.675 2.375 4.025 2.025C4.375 1.675 4.8 1.5 5.3 1.5H14.7C15.2 1.5 15.625 1.675 15.975 2.025C16.325 2.375 16.5 2.8 16.5 3.3V18.25L10 15.45L3.5 18.25ZM5 15.95L10 13.8L15 15.95V3.3C15 3.23333 14.9667 3.16667 14.9 3.1C14.8333 3.03333 14.7667 3 14.7 3H5.3C5.23333 3 5.16667 3.03333 5.1 3.1C5.03333 3.16667 5 3.23333 5 3.3V15.95ZM5 3H15H10H5Z" fill="#FA896B"/>
</g>
<defs>
<clipPath id="clip0_905_2577">
<rect width="20" height="20" fill="white"/>
</clipPath>
</defs>
</svg>
