<svg width="16" height="16" viewBox="0 0 16 16" fill="none" xmlns="http://www.w3.org/2000/svg">
<path d="M10.3335 7.33203C10.8858 7.33203 11.3335 6.88432 11.3335 6.33203C11.3335 5.77975 10.8858 5.33203 10.3335 5.33203C9.78121 5.33203 9.3335 5.77975 9.3335 6.33203C9.3335 6.88432 9.78121 7.33203 10.3335 7.33203Z" fill="#13DEB9"/>
<path d="M5.6665 7.33203C6.21879 7.33203 6.6665 6.88432 6.6665 6.33203C6.6665 5.77975 6.21879 5.33203 5.6665 5.33203C5.11422 5.33203 4.6665 5.77975 4.6665 6.33203C4.6665 6.88432 5.11422 7.33203 5.6665 7.33203Z" fill="#13DEB9"/>
<path d="M7.99984 11.9987C9.51984 11.9987 10.8132 10.892 11.3332 9.33203H4.6665C5.1865 10.892 6.47984 11.9987 7.99984 11.9987Z" fill="#13DEB9"/>
<path d="M7.9935 1.33203C4.3135 1.33203 1.3335 4.3187 1.3335 7.9987C1.3335 11.6787 4.3135 14.6654 7.9935 14.6654C11.6802 14.6654 14.6668 11.6787 14.6668 7.9987C14.6668 4.3187 11.6802 1.33203 7.9935 1.33203ZM8.00016 13.332C5.0535 13.332 2.66683 10.9454 2.66683 7.9987C2.66683 5.05203 5.0535 2.66536 8.00016 2.66536C10.9468 2.66536 13.3335 5.05203 13.3335 7.9987C13.3335 10.9454 10.9468 13.332 8.00016 13.332Z" fill="#13DEB9"/>
</svg>
